<svg id="Group_23" data-name="Group 23" xmlns="http://www.w3.org/2000/svg" width="41.786" height="29.241" viewBox="0 0 41.786 29.241">
  <path id="Path_47" data-name="Path 47" d="M938.267,217.662a8.271,8.271,0,0,0-5.86-2.422h-.013a8.459,8.459,0,0,0-2.8.483c-.033,0-.052-.025-.052-.09.007-.147.012-.3.012-.444A8.318,8.318,0,0,0,923.1,207.1a3.854,3.854,0,0,0-.45-.083c-.213-.038-.425-.064-.657-.09-.251-.019-.49-.026-.766-.033a8.308,8.308,0,0,0-5.9,2.486,7.616,7.616,0,0,0-1.333,1.8l-.032.065a8.042,8.042,0,0,0-.676,1.615,8.17,8.17,0,0,0-.277,1.456,6.813,6.813,0,0,0-.052.875,9.4,9.4,0,0,0,.065,1.107c-.006.026-.045.039-.071.033a5.394,5.394,0,0,0-.547-.181l-.135-.032c-.142-.032-.29-.064-.444-.09l-.155-.026c-.142-.013-.29-.032-.386-.039-.078-.007-.148-.013-.225-.013h-.406c-.059.006-.116.006-.226.013-.148.013-.3.026-.444.046l-.142.019c-.167.026-.329.058-.489.1-.045.013-.083.019-.155.045-.154.038-.309.083-.456.135a5.881,5.881,0,0,0-.612.252,7.32,7.32,0,0,0-.76.437,3.7,3.7,0,0,0-.4.3,6.661,6.661,0,0,0-.7.631,5.962,5.962,0,0,0-.546.676,6.673,6.673,0,0,0-1.03,2.363,5.055,5.055,0,0,0-1.146.412,5.6,5.6,0,0,0-1.25.824,5.145,5.145,0,0,0-.721.773,5.508,5.508,0,0,0,4.366,8.88h26.452c.232,0,.457-.006.689-.026a8.339,8.339,0,0,0,7.623-8.287,8.255,8.255,0,0,0-2.44-5.866m-5.241,13.515c-.212.019-.419.019-.631.019H905.943a4.865,4.865,0,0,1-3.857-7.842,4.431,4.431,0,0,1,.637-.676,4.712,4.712,0,0,1,1.107-.735,4.263,4.263,0,0,1,1.005-.361.708.708,0,0,0,.521-.541,5.576,5.576,0,0,1,.895-2.086,4.871,4.871,0,0,1,.49-.6,5.205,5.205,0,0,1,.624-.566,3.5,3.5,0,0,1,.347-.265,6.309,6.309,0,0,1,.7-.4,4.974,4.974,0,0,1,.541-.226c.135-.044.27-.083.406-.123a1.4,1.4,0,0,0,.141-.037c.148-.033.3-.058.439-.085.045-.005.084-.012.129-.018.135-.019.264-.033.4-.039.071-.007.135-.007.2-.012h.392a1.094,1.094,0,0,1,.135.006c.135.013.264.027.386.046a1.473,1.473,0,0,1,.148.018c.129.02.258.046.386.078.039.012.084.019.122.032a4.328,4.328,0,0,1,.49.155.7.7,0,0,0,.939-.74,7.341,7.341,0,0,1-.064-.992,6.823,6.823,0,0,1,.045-.811,8.012,8.012,0,0,1,.257-1.346,7.736,7.736,0,0,1,.618-1.486.051.051,0,0,0,.014-.026c.006-.013.019-.032.025-.046a7.16,7.16,0,0,1,1.224-1.642,7.584,7.584,0,0,1,5.473-2.3c.232,0,.463.013.689.032.2.02.392.045.586.078l.04.006c.129.02.264.046.392.071a7.7,7.7,0,0,1,5.95,7.47c0,.147-.006.3-.013.45a.7.7,0,0,0,.663.728.759.759,0,0,0,.271-.045,7.662,7.662,0,1,1,3.194,14.855" transform="translate(-899.674 -203.353)" fill="#ffab4b"/>
  <path id="Path_48" data-name="Path 48" d="M938.267,217.662a8.271,8.271,0,0,0-5.86-2.422h-.013a8.459,8.459,0,0,0-2.8.483c-.033,0-.052-.025-.052-.09.007-.147.012-.3.012-.444A8.318,8.318,0,0,0,923.1,207.1a3.854,3.854,0,0,0-.45-.083c-.213-.038-.425-.064-.657-.09-.251-.019-.49-.026-.766-.033a8.308,8.308,0,0,0-5.9,2.486,7.616,7.616,0,0,0-1.333,1.8l-.032.065a8.042,8.042,0,0,0-.676,1.615,8.17,8.17,0,0,0-.277,1.456,6.813,6.813,0,0,0-.052.875,9.4,9.4,0,0,0,.065,1.107c-.006.026-.045.039-.071.033a5.394,5.394,0,0,0-.547-.181l-.135-.032c-.142-.032-.29-.064-.444-.09l-.155-.026c-.142-.013-.29-.032-.386-.039-.078-.007-.148-.013-.225-.013h-.406c-.059.006-.116.006-.226.013-.148.013-.3.026-.444.046l-.142.019c-.167.026-.329.058-.489.1-.045.013-.083.019-.155.045-.154.038-.309.083-.456.135a5.881,5.881,0,0,0-.612.252,7.32,7.32,0,0,0-.76.437,3.7,3.7,0,0,0-.4.3,6.661,6.661,0,0,0-.7.631,5.962,5.962,0,0,0-.546.676,6.673,6.673,0,0,0-1.03,2.363,5.055,5.055,0,0,0-1.146.412,5.6,5.6,0,0,0-1.25.824,5.145,5.145,0,0,0-.721.773,5.508,5.508,0,0,0,4.366,8.88h26.452c.232,0,.457-.006.689-.026a8.339,8.339,0,0,0,7.623-8.287,8.255,8.255,0,0,0-2.44-5.866m-5.241,13.515c-.212.019-.419.019-.631.019H905.943a4.865,4.865,0,0,1-3.857-7.842,4.431,4.431,0,0,1,.637-.676,4.712,4.712,0,0,1,1.107-.735,4.263,4.263,0,0,1,1.005-.361.708.708,0,0,0,.521-.541,5.576,5.576,0,0,1,.895-2.086,4.871,4.871,0,0,1,.49-.6,5.205,5.205,0,0,1,.624-.566,3.5,3.5,0,0,1,.347-.265,6.309,6.309,0,0,1,.7-.4,4.974,4.974,0,0,1,.541-.226c.135-.044.27-.083.406-.123a1.4,1.4,0,0,0,.141-.037c.148-.033.3-.058.439-.085.045-.005.084-.012.129-.018.135-.019.264-.033.4-.039.071-.007.135-.007.2-.012h.392a1.094,1.094,0,0,1,.135.006c.135.013.264.027.386.046a1.473,1.473,0,0,1,.148.018c.129.02.258.046.386.078.039.012.084.019.122.032a4.328,4.328,0,0,1,.49.155.7.7,0,0,0,.939-.74,7.341,7.341,0,0,1-.064-.992,6.823,6.823,0,0,1,.045-.811,8.012,8.012,0,0,1,.257-1.346,7.736,7.736,0,0,1,.618-1.486.051.051,0,0,0,.014-.026c.006-.013.019-.032.025-.046a7.16,7.16,0,0,1,1.224-1.642,7.584,7.584,0,0,1,5.473-2.3c.232,0,.463.013.689.032.2.02.392.045.586.078l.04.006c.129.02.264.046.392.071a7.7,7.7,0,0,1,5.95,7.47c0,.147-.006.3-.013.45a.7.7,0,0,0,.663.728.759.759,0,0,0,.271-.045,7.662,7.662,0,1,1,3.194,14.855m5.241-13.515a8.271,8.271,0,0,0-5.86-2.422h-.013a8.459,8.459,0,0,0-2.8.483c-.033,0-.052-.025-.052-.09.007-.147.012-.3.012-.444A8.318,8.318,0,0,0,923.1,207.1a3.854,3.854,0,0,0-.45-.083c-.213-.038-.425-.064-.657-.09-.251-.019-.49-.026-.766-.033a8.308,8.308,0,0,0-5.9,2.486,7.616,7.616,0,0,0-1.333,1.8l-.032.065a8.042,8.042,0,0,0-.676,1.615,8.17,8.17,0,0,0-.277,1.456,6.813,6.813,0,0,0-.052.875,9.4,9.4,0,0,0,.065,1.107c-.006.026-.045.039-.071.033a5.394,5.394,0,0,0-.547-.181l-.135-.032c-.142-.032-.29-.064-.444-.09l-.155-.026c-.142-.013-.29-.032-.386-.039-.078-.007-.148-.013-.225-.013h-.406c-.059.006-.116.006-.226.013-.148.013-.3.026-.444.046l-.142.019c-.167.026-.329.058-.489.1-.045.013-.083.019-.155.045-.154.038-.309.083-.456.135a5.881,5.881,0,0,0-.612.252,7.32,7.32,0,0,0-.76.437,3.7,3.7,0,0,0-.4.3,6.661,6.661,0,0,0-.7.631,5.962,5.962,0,0,0-.546.676,6.673,6.673,0,0,0-1.03,2.363,5.055,5.055,0,0,0-1.146.412,5.6,5.6,0,0,0-1.25.824,5.145,5.145,0,0,0-.721.773,5.508,5.508,0,0,0,4.366,8.88h26.452c.232,0,.457-.006.689-.026a8.339,8.339,0,0,0,7.623-8.287,8.255,8.255,0,0,0-2.44-5.866m-5.241,13.515c-.212.019-.419.019-.631.019H905.943a4.865,4.865,0,0,1-3.857-7.842,4.431,4.431,0,0,1,.637-.676,4.712,4.712,0,0,1,1.107-.735,4.263,4.263,0,0,1,1.005-.361.708.708,0,0,0,.521-.541,5.576,5.576,0,0,1,.895-2.086,4.871,4.871,0,0,1,.49-.6,5.205,5.205,0,0,1,.624-.566,3.5,3.5,0,0,1,.347-.265,6.309,6.309,0,0,1,.7-.4,4.974,4.974,0,0,1,.541-.226c.135-.044.27-.083.406-.123a1.4,1.4,0,0,0,.141-.037c.148-.033.3-.058.439-.085.045-.005.084-.012.129-.018.135-.019.264-.033.4-.039.071-.007.135-.007.2-.012h.392a1.094,1.094,0,0,1,.135.006c.135.013.264.027.386.046a1.473,1.473,0,0,1,.148.018c.129.02.258.046.386.078.039.012.084.019.122.032a4.328,4.328,0,0,1,.49.155.7.7,0,0,0,.939-.74,7.341,7.341,0,0,1-.064-.992,6.823,6.823,0,0,1,.045-.811,8.012,8.012,0,0,1,.257-1.346,7.736,7.736,0,0,1,.618-1.486.051.051,0,0,0,.014-.026c.006-.013.019-.032.025-.046a7.16,7.16,0,0,1,1.224-1.642,7.584,7.584,0,0,1,5.473-2.3c.232,0,.463.013.689.032.2.02.392.045.586.078l.04.006c.129.02.264.046.392.071a7.7,7.7,0,0,1,5.95,7.47c0,.147-.006.3-.013.45a.7.7,0,0,0,.663.728.759.759,0,0,0,.271-.045,7.662,7.662,0,1,1,3.194,14.855m5.241-13.515a8.271,8.271,0,0,0-5.86-2.422h-.013a8.459,8.459,0,0,0-2.8.483c-.033,0-.052-.025-.052-.09.007-.147.012-.3.012-.444A8.318,8.318,0,0,0,923.1,207.1a3.854,3.854,0,0,0-.45-.083c-.213-.038-.425-.064-.657-.09-.251-.019-.49-.026-.766-.033a8.308,8.308,0,0,0-5.9,2.486,7.616,7.616,0,0,0-1.333,1.8l-.032.065a8.042,8.042,0,0,0-.676,1.615,8.17,8.17,0,0,0-.277,1.456,6.813,6.813,0,0,0-.052.875,9.4,9.4,0,0,0,.065,1.107c-.006.026-.045.039-.071.033a5.394,5.394,0,0,0-.547-.181l-.135-.032c-.142-.032-.29-.064-.444-.09l-.155-.026c-.142-.013-.29-.032-.386-.039-.078-.007-.148-.013-.225-.013h-.406c-.059.006-.116.006-.226.013-.148.013-.3.026-.444.046l-.142.019c-.167.026-.329.058-.489.1-.045.013-.083.019-.155.045-.154.038-.309.083-.456.135a5.881,5.881,0,0,0-.612.252,7.32,7.32,0,0,0-.76.437,3.7,3.7,0,0,0-.4.3,6.661,6.661,0,0,0-.7.631,5.962,5.962,0,0,0-.546.676,6.673,6.673,0,0,0-1.03,2.363,5.055,5.055,0,0,0-1.146.412,5.6,5.6,0,0,0-1.25.824,5.145,5.145,0,0,0-.721.773,5.508,5.508,0,0,0,4.366,8.88h26.452c.232,0,.457-.006.689-.026a8.339,8.339,0,0,0,7.623-8.287,8.255,8.255,0,0,0-2.44-5.866m-5.241,13.515c-.212.019-.419.019-.631.019H905.943a4.865,4.865,0,0,1-3.857-7.842,4.431,4.431,0,0,1,.637-.676,4.712,4.712,0,0,1,1.107-.735,4.263,4.263,0,0,1,1.005-.361.708.708,0,0,0,.521-.541,5.576,5.576,0,0,1,.895-2.086,4.871,4.871,0,0,1,.49-.6,5.205,5.205,0,0,1,.624-.566,3.5,3.5,0,0,1,.347-.265,6.309,6.309,0,0,1,.7-.4,4.974,4.974,0,0,1,.541-.226c.135-.044.27-.083.406-.123a1.4,1.4,0,0,0,.141-.037c.148-.033.3-.058.439-.085.045-.005.084-.012.129-.018.135-.019.264-.033.4-.039.071-.007.135-.007.2-.012h.392a1.094,1.094,0,0,1,.135.006c.135.013.264.027.386.046a1.473,1.473,0,0,1,.148.018c.129.02.258.046.386.078.039.012.084.019.122.032a4.328,4.328,0,0,1,.49.155.7.7,0,0,0,.939-.74,7.341,7.341,0,0,1-.064-.992,6.823,6.823,0,0,1,.045-.811,8.012,8.012,0,0,1,.257-1.346,7.736,7.736,0,0,1,.618-1.486.051.051,0,0,0,.014-.026c.006-.013.019-.032.025-.046a7.16,7.16,0,0,1,1.224-1.642,7.584,7.584,0,0,1,5.473-2.3c.232,0,.463.013.689.032.2.02.392.045.586.078l.04.006c.129.02.264.046.392.071a7.7,7.7,0,0,1,5.95,7.47c0,.147-.006.3-.013.45a.7.7,0,0,0,.663.728.759.759,0,0,0,.271-.045,7.662,7.662,0,1,1,3.194,14.855m5.241-13.515a8.271,8.271,0,0,0-5.86-2.422h-.013a8.459,8.459,0,0,0-2.8.483c-.033,0-.052-.025-.052-.09.007-.147.012-.3.012-.444A8.318,8.318,0,0,0,923.1,207.1a3.854,3.854,0,0,0-.45-.083c-.213-.038-.425-.064-.657-.09-.251-.019-.49-.026-.766-.033a8.308,8.308,0,0,0-5.9,2.486,7.616,7.616,0,0,0-1.333,1.8l-.032.065a8.042,8.042,0,0,0-.676,1.615,8.17,8.17,0,0,0-.277,1.456,6.813,6.813,0,0,0-.052.875,9.4,9.4,0,0,0,.065,1.107c-.006.026-.045.039-.071.033a5.394,5.394,0,0,0-.547-.181l-.135-.032c-.142-.032-.29-.064-.444-.09l-.155-.026c-.142-.013-.29-.032-.386-.039-.078-.007-.148-.013-.225-.013h-.406c-.059.006-.116.006-.226.013-.148.013-.3.026-.444.046l-.142.019c-.167.026-.329.058-.489.1-.045.013-.083.019-.155.045-.154.038-.309.083-.456.135a5.881,5.881,0,0,0-.612.252,7.32,7.32,0,0,0-.76.437,3.7,3.7,0,0,0-.4.3,6.661,6.661,0,0,0-.7.631,5.962,5.962,0,0,0-.546.676,6.673,6.673,0,0,0-1.03,2.363,5.055,5.055,0,0,0-1.146.412,5.6,5.6,0,0,0-1.25.824,5.145,5.145,0,0,0-.721.773,5.508,5.508,0,0,0,4.366,8.88h26.452c.232,0,.457-.006.689-.026a8.339,8.339,0,0,0,7.623-8.287,8.255,8.255,0,0,0-2.44-5.866m-5.241,13.515c-.212.019-.419.019-.631.019H905.943a4.865,4.865,0,0,1-3.857-7.842,4.431,4.431,0,0,1,.637-.676,4.712,4.712,0,0,1,1.107-.735,4.263,4.263,0,0,1,1.005-.361.708.708,0,0,0,.521-.541,5.576,5.576,0,0,1,.895-2.086,4.871,4.871,0,0,1,.49-.6,5.205,5.205,0,0,1,.624-.566,3.5,3.5,0,0,1,.347-.265,6.309,6.309,0,0,1,.7-.4,4.974,4.974,0,0,1,.541-.226c.135-.044.27-.083.406-.123a1.4,1.4,0,0,0,.141-.037c.148-.033.3-.058.439-.085.045-.005.084-.012.129-.018.135-.019.264-.033.4-.039.071-.007.135-.007.2-.012h.392a1.094,1.094,0,0,1,.135.006c.135.013.264.027.386.046a1.473,1.473,0,0,1,.148.018c.129.02.258.046.386.078.039.012.084.019.122.032a4.328,4.328,0,0,1,.49.155.7.7,0,0,0,.939-.74,7.341,7.341,0,0,1-.064-.992,6.823,6.823,0,0,1,.045-.811,8.012,8.012,0,0,1,.257-1.346,7.736,7.736,0,0,1,.618-1.486.051.051,0,0,0,.014-.026c.006-.013.019-.032.025-.046a7.16,7.16,0,0,1,1.224-1.642,7.584,7.584,0,0,1,5.473-2.3c.232,0,.463.013.689.032.2.02.392.045.586.078l.04.006c.129.02.264.046.392.071a7.7,7.7,0,0,1,5.95,7.47c0,.147-.006.3-.013.45a.7.7,0,0,0,.663.728.759.759,0,0,0,.271-.045,7.662,7.662,0,1,1,3.194,14.855m5.241-13.515a8.271,8.271,0,0,0-5.86-2.422h-.013a8.459,8.459,0,0,0-2.8.483c-.033,0-.052-.025-.052-.09.007-.147.012-.3.012-.444A8.318,8.318,0,0,0,923.1,207.1a3.854,3.854,0,0,0-.45-.083c-.213-.038-.425-.064-.657-.09-.251-.019-.49-.026-.766-.033a8.308,8.308,0,0,0-5.9,2.486,7.616,7.616,0,0,0-1.333,1.8l-.032.065a8.042,8.042,0,0,0-.676,1.615,8.17,8.17,0,0,0-.277,1.456,6.813,6.813,0,0,0-.052.875,9.4,9.4,0,0,0,.065,1.107c-.006.026-.045.039-.071.033a5.394,5.394,0,0,0-.547-.181l-.135-.032c-.142-.032-.29-.064-.444-.09l-.155-.026c-.142-.013-.29-.032-.386-.039-.078-.007-.148-.013-.225-.013h-.406c-.059.006-.116.006-.226.013-.148.013-.3.026-.444.046l-.142.019c-.167.026-.329.058-.489.1-.045.013-.083.019-.155.045-.154.038-.309.083-.456.135a5.881,5.881,0,0,0-.612.252,7.32,7.32,0,0,0-.76.437,3.7,3.7,0,0,0-.4.3,6.661,6.661,0,0,0-.7.631,5.962,5.962,0,0,0-.546.676,6.673,6.673,0,0,0-1.03,2.363,5.055,5.055,0,0,0-1.146.412,5.6,5.6,0,0,0-1.25.824,5.145,5.145,0,0,0-.721.773,5.508,5.508,0,0,0,4.366,8.88h26.452c.232,0,.457-.006.689-.026a8.339,8.339,0,0,0,7.623-8.287,8.255,8.255,0,0,0-2.44-5.866m-5.241,13.515c-.212.019-.419.019-.631.019H905.943a4.865,4.865,0,0,1-3.857-7.842,4.431,4.431,0,0,1,.637-.676,4.712,4.712,0,0,1,1.107-.735,4.263,4.263,0,0,1,1.005-.361.708.708,0,0,0,.521-.541,5.576,5.576,0,0,1,.895-2.086,4.871,4.871,0,0,1,.49-.6,5.205,5.205,0,0,1,.624-.566,3.5,3.5,0,0,1,.347-.265,6.309,6.309,0,0,1,.7-.4,4.974,4.974,0,0,1,.541-.226c.135-.044.27-.083.406-.123a1.4,1.4,0,0,0,.141-.037c.148-.033.3-.058.439-.085.045-.005.084-.012.129-.018.135-.019.264-.033.4-.039.071-.007.135-.007.2-.012h.392a1.094,1.094,0,0,1,.135.006c.135.013.264.027.386.046a1.473,1.473,0,0,1,.148.018c.129.02.258.046.386.078.039.012.084.019.122.032a4.328,4.328,0,0,1,.49.155.7.7,0,0,0,.939-.74,7.341,7.341,0,0,1-.064-.992,6.823,6.823,0,0,1,.045-.811,8.012,8.012,0,0,1,.257-1.346,7.736,7.736,0,0,1,.618-1.486.051.051,0,0,0,.014-.026c.006-.013.019-.032.025-.046a7.16,7.16,0,0,1,1.224-1.642,7.584,7.584,0,0,1,5.473-2.3c.232,0,.463.013.689.032.2.02.392.045.586.078l.04.006c.129.02.264.046.392.071a7.7,7.7,0,0,1,5.95,7.47c0,.147-.006.3-.013.45a.7.7,0,0,0,.663.728.759.759,0,0,0,.271-.045,7.662,7.662,0,1,1,3.194,14.855m5.241-13.515a8.271,8.271,0,0,0-5.86-2.422h-.013a8.459,8.459,0,0,0-2.8.483c-.033,0-.052-.025-.052-.09.007-.147.012-.3.012-.444A8.318,8.318,0,0,0,923.1,207.1a3.854,3.854,0,0,0-.45-.083c-.213-.038-.425-.064-.657-.09-.251-.019-.49-.026-.766-.033a8.308,8.308,0,0,0-5.9,2.486,7.616,7.616,0,0,0-1.333,1.8l-.032.065a8.042,8.042,0,0,0-.676,1.615,8.17,8.17,0,0,0-.277,1.456,6.813,6.813,0,0,0-.052.875,9.4,9.4,0,0,0,.065,1.107c-.006.026-.045.039-.071.033a5.394,5.394,0,0,0-.547-.181l-.135-.032c-.142-.032-.29-.064-.444-.09l-.155-.026c-.142-.013-.29-.032-.386-.039-.078-.007-.148-.013-.225-.013h-.406c-.059.006-.116.006-.226.013-.148.013-.3.026-.444.046l-.142.019c-.167.026-.329.058-.489.1-.045.013-.083.019-.155.045-.154.038-.309.083-.456.135a5.881,5.881,0,0,0-.612.252,7.32,7.32,0,0,0-.76.437,3.7,3.7,0,0,0-.4.3,6.661,6.661,0,0,0-.7.631,5.962,5.962,0,0,0-.546.676,6.673,6.673,0,0,0-1.03,2.363,5.055,5.055,0,0,0-1.146.412,5.6,5.6,0,0,0-1.25.824,5.145,5.145,0,0,0-.721.773,5.508,5.508,0,0,0,4.366,8.88h26.452c.232,0,.457-.006.689-.026a8.339,8.339,0,0,0,7.623-8.287,8.255,8.255,0,0,0-2.44-5.866m-5.241,13.515c-.212.019-.419.019-.631.019H905.943a4.865,4.865,0,0,1-3.857-7.842,4.431,4.431,0,0,1,.637-.676,4.712,4.712,0,0,1,1.107-.735,4.263,4.263,0,0,1,1.005-.361.708.708,0,0,0,.521-.541,5.576,5.576,0,0,1,.895-2.086,4.871,4.871,0,0,1,.49-.6,5.205,5.205,0,0,1,.624-.566,3.5,3.5,0,0,1,.347-.265,6.309,6.309,0,0,1,.7-.4,4.974,4.974,0,0,1,.541-.226c.135-.044.27-.083.406-.123a1.4,1.4,0,0,0,.141-.037c.148-.033.3-.058.439-.085.045-.005.084-.012.129-.018.135-.019.264-.033.4-.039.071-.007.135-.007.2-.012h.392a1.094,1.094,0,0,1,.135.006c.135.013.264.027.386.046a1.473,1.473,0,0,1,.148.018c.129.02.258.046.386.078.039.012.084.019.122.032a4.328,4.328,0,0,1,.49.155.7.7,0,0,0,.939-.74,7.341,7.341,0,0,1-.064-.992,6.823,6.823,0,0,1,.045-.811,8.012,8.012,0,0,1,.257-1.346,7.736,7.736,0,0,1,.618-1.486.051.051,0,0,0,.014-.026c.006-.013.019-.032.025-.046a7.16,7.16,0,0,1,1.224-1.642,7.584,7.584,0,0,1,5.473-2.3c.232,0,.463.013.689.032.2.02.392.045.586.078l.04.006c.129.02.264.046.392.071a7.7,7.7,0,0,1,5.95,7.47c0,.147-.006.3-.013.45a.7.7,0,0,0,.663.728.759.759,0,0,0,.271-.045,7.662,7.662,0,1,1,3.194,14.855m5.241-13.515a8.271,8.271,0,0,0-5.86-2.422h-.013a8.459,8.459,0,0,0-2.8.483c-.033,0-.052-.025-.052-.09.007-.147.012-.3.012-.444A8.318,8.318,0,0,0,923.1,207.1a3.854,3.854,0,0,0-.45-.083c-.213-.038-.425-.064-.657-.09-.251-.019-.49-.026-.766-.033a8.308,8.308,0,0,0-5.9,2.486,7.616,7.616,0,0,0-1.333,1.8l-.032.065a8.042,8.042,0,0,0-.676,1.615,8.17,8.17,0,0,0-.277,1.456,6.813,6.813,0,0,0-.052.875,9.4,9.4,0,0,0,.065,1.107c-.006.026-.045.039-.071.033a5.394,5.394,0,0,0-.547-.181l-.135-.032c-.142-.032-.29-.064-.444-.09l-.155-.026c-.142-.013-.29-.032-.386-.039-.078-.007-.148-.013-.225-.013h-.406c-.059.006-.116.006-.226.013-.148.013-.3.026-.444.046l-.142.019c-.167.026-.329.058-.489.1-.045.013-.083.019-.155.045-.154.038-.309.083-.456.135a5.881,5.881,0,0,0-.612.252,7.32,7.32,0,0,0-.76.437,3.7,3.7,0,0,0-.4.3,6.661,6.661,0,0,0-.7.631,5.962,5.962,0,0,0-.546.676,6.673,6.673,0,0,0-1.03,2.363,5.055,5.055,0,0,0-1.146.412,5.6,5.6,0,0,0-1.25.824,5.145,5.145,0,0,0-.721.773,5.508,5.508,0,0,0,4.366,8.88h26.452c.232,0,.457-.006.689-.026a8.339,8.339,0,0,0,7.623-8.287,8.255,8.255,0,0,0-2.44-5.866m-5.241,13.515c-.212.019-.419.019-.631.019H905.943a4.865,4.865,0,0,1-3.857-7.842,4.431,4.431,0,0,1,.637-.676,4.712,4.712,0,0,1,1.107-.735,4.263,4.263,0,0,1,1.005-.361.708.708,0,0,0,.521-.541,5.576,5.576,0,0,1,.895-2.086,4.871,4.871,0,0,1,.49-.6,5.205,5.205,0,0,1,.624-.566,3.5,3.5,0,0,1,.347-.265,6.309,6.309,0,0,1,.7-.4,4.974,4.974,0,0,1,.541-.226c.135-.044.27-.083.406-.123a1.4,1.4,0,0,0,.141-.037c.148-.033.3-.058.439-.085.045-.005.084-.012.129-.018.135-.019.264-.033.4-.039.071-.007.135-.007.2-.012h.392a1.094,1.094,0,0,1,.135.006c.135.013.264.027.386.046a1.473,1.473,0,0,1,.148.018c.129.02.258.046.386.078.039.012.084.019.122.032a4.328,4.328,0,0,1,.49.155.7.7,0,0,0,.939-.74,7.341,7.341,0,0,1-.064-.992,6.823,6.823,0,0,1,.045-.811,8.012,8.012,0,0,1,.257-1.346,7.736,7.736,0,0,1,.618-1.486.051.051,0,0,0,.014-.026c.006-.013.019-.032.025-.046a7.16,7.16,0,0,1,1.224-1.642,7.584,7.584,0,0,1,5.473-2.3c.232,0,.463.013.689.032.2.02.392.045.586.078l.04.006c.129.02.264.046.392.071a7.7,7.7,0,0,1,5.95,7.47c0,.147-.006.3-.013.45a.7.7,0,0,0,.663.728.759.759,0,0,0,.271-.045,7.662,7.662,0,1,1,3.194,14.855m5.241-13.515a8.271,8.271,0,0,0-5.86-2.422h-.013a8.459,8.459,0,0,0-2.8.483c-.033,0-.052-.025-.052-.09.007-.147.012-.3.012-.444A8.318,8.318,0,0,0,923.1,207.1a3.854,3.854,0,0,0-.45-.083c-.213-.038-.425-.064-.657-.09-.251-.019-.49-.026-.766-.033a8.308,8.308,0,0,0-5.9,2.486,7.616,7.616,0,0,0-1.333,1.8l-.032.065a8.042,8.042,0,0,0-.676,1.615,8.17,8.17,0,0,0-.277,1.456,6.813,6.813,0,0,0-.052.875,9.4,9.4,0,0,0,.065,1.107c-.006.026-.045.039-.071.033a5.394,5.394,0,0,0-.547-.181l-.135-.032c-.142-.032-.29-.064-.444-.09l-.155-.026c-.142-.013-.29-.032-.386-.039-.078-.007-.148-.013-.225-.013h-.406c-.059.006-.116.006-.226.013-.148.013-.3.026-.444.046l-.142.019c-.167.026-.329.058-.489.1-.045.013-.083.019-.155.045-.154.038-.309.083-.456.135a5.881,5.881,0,0,0-.612.252,7.32,7.32,0,0,0-.76.437,3.7,3.7,0,0,0-.4.3,6.661,6.661,0,0,0-.7.631,5.962,5.962,0,0,0-.546.676,6.673,6.673,0,0,0-1.03,2.363,5.055,5.055,0,0,0-1.146.412,5.6,5.6,0,0,0-1.25.824,5.145,5.145,0,0,0-.721.773,5.508,5.508,0,0,0,4.366,8.88h26.452c.232,0,.457-.006.689-.026a8.339,8.339,0,0,0,7.623-8.287,8.255,8.255,0,0,0-2.44-5.866m-5.241,13.515c-.212.019-.419.019-.631.019H905.943a4.865,4.865,0,0,1-3.857-7.842,4.431,4.431,0,0,1,.637-.676,4.712,4.712,0,0,1,1.107-.735,4.263,4.263,0,0,1,1.005-.361.708.708,0,0,0,.521-.541,5.576,5.576,0,0,1,.895-2.086,4.871,4.871,0,0,1,.49-.6,5.205,5.205,0,0,1,.624-.566,3.5,3.5,0,0,1,.347-.265,6.309,6.309,0,0,1,.7-.4,4.974,4.974,0,0,1,.541-.226c.135-.044.27-.083.406-.123a1.4,1.4,0,0,0,.141-.037c.148-.033.3-.058.439-.085.045-.005.084-.012.129-.018.135-.019.264-.033.4-.039.071-.007.135-.007.2-.012h.392a1.094,1.094,0,0,1,.135.006c.135.013.264.027.386.046a1.473,1.473,0,0,1,.148.018c.129.02.258.046.386.078.039.012.084.019.122.032a4.328,4.328,0,0,1,.49.155.7.7,0,0,0,.939-.74,7.341,7.341,0,0,1-.064-.992,6.823,6.823,0,0,1,.045-.811,8.012,8.012,0,0,1,.257-1.346,7.736,7.736,0,0,1,.618-1.486.051.051,0,0,0,.014-.026c.006-.013.019-.032.025-.046a7.16,7.16,0,0,1,1.224-1.642,7.584,7.584,0,0,1,5.473-2.3c.232,0,.463.013.689.032.2.02.392.045.586.078l.04.006c.129.02.264.046.392.071a7.7,7.7,0,0,1,5.95,7.47c0,.147-.006.3-.013.45a.7.7,0,0,0,.663.728.759.759,0,0,0,.271-.045,7.662,7.662,0,1,1,3.194,14.855m5.241-13.515a8.271,8.271,0,0,0-5.86-2.422h-.013a8.459,8.459,0,0,0-2.8.483c-.033,0-.052-.025-.052-.09.007-.147.012-.3.012-.444A8.318,8.318,0,0,0,923.1,207.1a3.854,3.854,0,0,0-.45-.083c-.213-.038-.425-.064-.657-.09-.251-.019-.49-.026-.766-.033a8.308,8.308,0,0,0-5.9,2.486,7.616,7.616,0,0,0-1.333,1.8l-.032.065a8.042,8.042,0,0,0-.676,1.615,8.17,8.17,0,0,0-.277,1.456,6.813,6.813,0,0,0-.052.875,9.4,9.4,0,0,0,.065,1.107c-.006.026-.045.039-.071.033a5.394,5.394,0,0,0-.547-.181l-.135-.032c-.142-.032-.29-.064-.444-.09l-.155-.026c-.142-.013-.29-.032-.386-.039-.078-.007-.148-.013-.225-.013h-.406c-.059.006-.116.006-.226.013-.148.013-.3.026-.444.046l-.142.019c-.167.026-.329.058-.489.1-.045.013-.083.019-.155.045-.154.038-.309.083-.456.135a5.881,5.881,0,0,0-.612.252,7.32,7.32,0,0,0-.76.437,3.7,3.7,0,0,0-.4.3,6.661,6.661,0,0,0-.7.631,5.962,5.962,0,0,0-.546.676,6.673,6.673,0,0,0-1.03,2.363,5.055,5.055,0,0,0-1.146.412,5.6,5.6,0,0,0-1.25.824,5.145,5.145,0,0,0-.721.773,5.508,5.508,0,0,0,4.366,8.88h26.452c.232,0,.457-.006.689-.026a8.339,8.339,0,0,0,7.623-8.287,8.255,8.255,0,0,0-2.44-5.866m-5.241,13.515c-.212.019-.419.019-.631.019H905.943a4.865,4.865,0,0,1-3.857-7.842,4.431,4.431,0,0,1,.637-.676,4.712,4.712,0,0,1,1.107-.735,4.263,4.263,0,0,1,1.005-.361.708.708,0,0,0,.521-.541,5.576,5.576,0,0,1,.895-2.086,4.871,4.871,0,0,1,.49-.6,5.205,5.205,0,0,1,.624-.566,3.5,3.5,0,0,1,.347-.265,6.309,6.309,0,0,1,.7-.4,4.974,4.974,0,0,1,.541-.226c.135-.044.27-.083.406-.123a1.4,1.4,0,0,0,.141-.037c.148-.033.3-.058.439-.085.045-.005.084-.012.129-.018.135-.019.264-.033.4-.039.071-.007.135-.007.2-.012h.392a1.094,1.094,0,0,1,.135.006c.135.013.264.027.386.046a1.473,1.473,0,0,1,.148.018c.129.02.258.046.386.078.039.012.084.019.122.032a4.328,4.328,0,0,1,.49.155.7.7,0,0,0,.939-.74,7.341,7.341,0,0,1-.064-.992,6.823,6.823,0,0,1,.045-.811,8.012,8.012,0,0,1,.257-1.346,7.736,7.736,0,0,1,.618-1.486.051.051,0,0,0,.014-.026c.006-.013.019-.032.025-.046a7.16,7.16,0,0,1,1.224-1.642,7.584,7.584,0,0,1,5.473-2.3c.232,0,.463.013.689.032.2.02.392.045.586.078l.04.006c.129.02.264.046.392.071a7.7,7.7,0,0,1,5.95,7.47c0,.147-.006.3-.013.45a.7.7,0,0,0,.663.728.759.759,0,0,0,.271-.045,7.662,7.662,0,1,1,3.194,14.855m5.241-13.515a8.271,8.271,0,0,0-5.86-2.422h-.013a8.459,8.459,0,0,0-2.8.483c-.033,0-.052-.025-.052-.09.007-.147.012-.3.012-.444A8.318,8.318,0,0,0,923.1,207.1a3.854,3.854,0,0,0-.45-.083c-.213-.038-.425-.064-.657-.09-.251-.019-.49-.026-.766-.033a8.308,8.308,0,0,0-5.9,2.486,7.616,7.616,0,0,0-1.333,1.8l-.032.065a8.042,8.042,0,0,0-.676,1.615,8.17,8.17,0,0,0-.277,1.456,6.813,6.813,0,0,0-.052.875,9.4,9.4,0,0,0,.065,1.107c-.006.026-.045.039-.071.033a5.394,5.394,0,0,0-.547-.181l-.135-.032c-.142-.032-.29-.064-.444-.09l-.155-.026c-.142-.013-.29-.032-.386-.039-.078-.007-.148-.013-.225-.013h-.406c-.059.006-.116.006-.226.013-.148.013-.3.026-.444.046l-.142.019c-.167.026-.329.058-.489.1-.045.013-.083.019-.155.045-.154.038-.309.083-.456.135a5.881,5.881,0,0,0-.612.252,7.32,7.32,0,0,0-.76.437,3.7,3.7,0,0,0-.4.3,6.661,6.661,0,0,0-.7.631,5.962,5.962,0,0,0-.546.676,6.673,6.673,0,0,0-1.03,2.363,5.055,5.055,0,0,0-1.146.412,5.6,5.6,0,0,0-1.25.824,5.145,5.145,0,0,0-.721.773,5.508,5.508,0,0,0,4.366,8.88h26.452c.232,0,.457-.006.689-.026a8.339,8.339,0,0,0,7.623-8.287,8.255,8.255,0,0,0-2.44-5.866m-5.241,13.515c-.212.019-.419.019-.631.019H905.943a4.865,4.865,0,0,1-3.857-7.842,4.431,4.431,0,0,1,.637-.676,4.712,4.712,0,0,1,1.107-.735,4.263,4.263,0,0,1,1.005-.361.708.708,0,0,0,.521-.541,5.576,5.576,0,0,1,.895-2.086,4.871,4.871,0,0,1,.49-.6,5.205,5.205,0,0,1,.624-.566,3.5,3.5,0,0,1,.347-.265,6.309,6.309,0,0,1,.7-.4,4.974,4.974,0,0,1,.541-.226c.135-.044.27-.083.406-.123a1.4,1.4,0,0,0,.141-.037c.148-.033.3-.058.439-.085.045-.005.084-.012.129-.018.135-.019.264-.033.4-.039.071-.007.135-.007.2-.012h.392a1.094,1.094,0,0,1,.135.006c.135.013.264.027.386.046a1.473,1.473,0,0,1,.148.018c.129.02.258.046.386.078.039.012.084.019.122.032a4.328,4.328,0,0,1,.49.155.7.7,0,0,0,.939-.74,7.341,7.341,0,0,1-.064-.992,6.823,6.823,0,0,1,.045-.811,8.012,8.012,0,0,1,.257-1.346,7.736,7.736,0,0,1,.618-1.486.051.051,0,0,0,.014-.026c.006-.013.019-.032.025-.046a7.16,7.16,0,0,1,1.224-1.642,7.584,7.584,0,0,1,5.473-2.3c.232,0,.463.013.689.032.2.02.392.045.586.078l.04.006c.129.02.264.046.392.071a7.7,7.7,0,0,1,5.95,7.47c0,.147-.006.3-.013.45a.7.7,0,0,0,.663.728.759.759,0,0,0,.271-.045,7.662,7.662,0,1,1,3.194,14.855m5.241-13.515a8.271,8.271,0,0,0-5.86-2.422h-.013a8.459,8.459,0,0,0-2.8.483c-.033,0-.052-.025-.052-.09.007-.147.012-.3.012-.444A8.318,8.318,0,0,0,923.1,207.1a3.854,3.854,0,0,0-.45-.083c-.213-.038-.425-.064-.657-.09-.251-.019-.49-.026-.766-.033a8.308,8.308,0,0,0-5.9,2.486,7.616,7.616,0,0,0-1.333,1.8l-.032.065a8.042,8.042,0,0,0-.676,1.615,8.17,8.17,0,0,0-.277,1.456,6.813,6.813,0,0,0-.052.875,9.4,9.4,0,0,0,.065,1.107c-.006.026-.045.039-.071.033a5.394,5.394,0,0,0-.547-.181l-.135-.032c-.142-.032-.29-.064-.444-.09l-.155-.026c-.142-.013-.29-.032-.386-.039-.078-.007-.148-.013-.225-.013h-.406c-.059.006-.116.006-.226.013-.148.013-.3.026-.444.046l-.142.019c-.167.026-.329.058-.489.1-.045.013-.083.019-.155.045-.154.038-.309.083-.456.135a5.881,5.881,0,0,0-.612.252,7.32,7.32,0,0,0-.76.437,3.7,3.7,0,0,0-.4.3,6.661,6.661,0,0,0-.7.631,5.962,5.962,0,0,0-.546.676,6.673,6.673,0,0,0-1.03,2.363,5.055,5.055,0,0,0-1.146.412,5.6,5.6,0,0,0-1.25.824,5.145,5.145,0,0,0-.721.773,5.508,5.508,0,0,0,4.366,8.88h26.452c.232,0,.457-.006.689-.026a8.339,8.339,0,0,0,7.623-8.287,8.255,8.255,0,0,0-2.44-5.866m-5.241,13.515c-.212.019-.419.019-.631.019H905.943a4.865,4.865,0,0,1-3.857-7.842,4.431,4.431,0,0,1,.637-.676,4.712,4.712,0,0,1,1.107-.735,4.263,4.263,0,0,1,1.005-.361.708.708,0,0,0,.521-.541,5.576,5.576,0,0,1,.895-2.086,4.871,4.871,0,0,1,.49-.6,5.205,5.205,0,0,1,.624-.566,3.5,3.5,0,0,1,.347-.265,6.309,6.309,0,0,1,.7-.4,4.974,4.974,0,0,1,.541-.226c.135-.044.27-.083.406-.123a1.4,1.4,0,0,0,.141-.037c.148-.033.3-.058.439-.085.045-.005.084-.012.129-.018.135-.019.264-.033.4-.039.071-.007.135-.007.2-.012h.392a1.094,1.094,0,0,1,.135.006c.135.013.264.027.386.046a1.473,1.473,0,0,1,.148.018c.129.02.258.046.386.078.039.012.084.019.122.032a4.328,4.328,0,0,1,.49.155.7.7,0,0,0,.939-.74,7.341,7.341,0,0,1-.064-.992,6.823,6.823,0,0,1,.045-.811,8.012,8.012,0,0,1,.257-1.346,7.736,7.736,0,0,1,.618-1.486.051.051,0,0,0,.014-.026c.006-.013.019-.032.025-.046a7.16,7.16,0,0,1,1.224-1.642,7.584,7.584,0,0,1,5.473-2.3c.232,0,.463.013.689.032.2.02.392.045.586.078l.04.006c.129.02.264.046.392.071a7.7,7.7,0,0,1,5.95,7.47c0,.147-.006.3-.013.45a.7.7,0,0,0,.663.728.759.759,0,0,0,.271-.045,7.662,7.662,0,1,1,3.194,14.855m5.241-13.515a8.271,8.271,0,0,0-5.86-2.422h-.013a8.459,8.459,0,0,0-2.8.483c-.033,0-.052-.025-.052-.09.007-.147.012-.3.012-.444A8.318,8.318,0,0,0,923.1,207.1a3.854,3.854,0,0,0-.45-.083c-.213-.038-.425-.064-.657-.09-.251-.019-.49-.026-.766-.033a8.308,8.308,0,0,0-5.9,2.486,7.616,7.616,0,0,0-1.333,1.8l-.032.065a8.042,8.042,0,0,0-.676,1.615,8.17,8.17,0,0,0-.277,1.456,6.813,6.813,0,0,0-.052.875,9.4,9.4,0,0,0,.065,1.107c-.006.026-.045.039-.071.033a5.394,5.394,0,0,0-.547-.181l-.135-.032c-.142-.032-.29-.064-.444-.09l-.155-.026c-.142-.013-.29-.032-.386-.039-.078-.007-.148-.013-.225-.013h-.406c-.059.006-.116.006-.226.013-.148.013-.3.026-.444.046l-.142.019c-.167.026-.329.058-.489.1-.045.013-.083.019-.155.045-.154.038-.309.083-.456.135a5.881,5.881,0,0,0-.612.252,7.32,7.32,0,0,0-.76.437,3.7,3.7,0,0,0-.4.3,6.661,6.661,0,0,0-.7.631,5.962,5.962,0,0,0-.546.676,6.673,6.673,0,0,0-1.03,2.363,5.055,5.055,0,0,0-1.146.412,5.6,5.6,0,0,0-1.25.824,5.145,5.145,0,0,0-.721.773,5.508,5.508,0,0,0,4.366,8.88h26.452c.232,0,.457-.006.689-.026a8.339,8.339,0,0,0,7.623-8.287,8.255,8.255,0,0,0-2.44-5.866m-5.241,13.515c-.212.019-.419.019-.631.019H905.943a4.865,4.865,0,0,1-3.857-7.842,4.431,4.431,0,0,1,.637-.676,4.712,4.712,0,0,1,1.107-.735,4.263,4.263,0,0,1,1.005-.361.708.708,0,0,0,.521-.541,5.576,5.576,0,0,1,.895-2.086,4.871,4.871,0,0,1,.49-.6,5.205,5.205,0,0,1,.624-.566,3.5,3.5,0,0,1,.347-.265,6.309,6.309,0,0,1,.7-.4,4.974,4.974,0,0,1,.541-.226c.135-.044.27-.083.406-.123a1.4,1.4,0,0,0,.141-.037c.148-.033.3-.058.439-.085.045-.005.084-.012.129-.018.135-.019.264-.033.4-.039.071-.007.135-.007.2-.012h.392a1.094,1.094,0,0,1,.135.006c.135.013.264.027.386.046a1.473,1.473,0,0,1,.148.018c.129.02.258.046.386.078.039.012.084.019.122.032a4.328,4.328,0,0,1,.49.155.7.7,0,0,0,.939-.74,7.341,7.341,0,0,1-.064-.992,6.823,6.823,0,0,1,.045-.811,8.012,8.012,0,0,1,.257-1.346,7.736,7.736,0,0,1,.618-1.486.051.051,0,0,0,.014-.026c.006-.013.019-.032.025-.046a7.16,7.16,0,0,1,1.224-1.642,7.584,7.584,0,0,1,5.473-2.3c.232,0,.463.013.689.032.2.02.392.045.586.078l.04.006c.129.02.264.046.392.071a7.7,7.7,0,0,1,5.95,7.47c0,.147-.006.3-.013.45a.7.7,0,0,0,.663.728.759.759,0,0,0,.271-.045,7.662,7.662,0,1,1,3.194,14.855m5.241-13.515a8.271,8.271,0,0,0-5.86-2.422h-.013a8.459,8.459,0,0,0-2.8.483c-.033,0-.052-.025-.052-.09.007-.147.012-.3.012-.444A8.318,8.318,0,0,0,923.1,207.1a3.854,3.854,0,0,0-.45-.083c-.213-.038-.425-.064-.657-.09-.251-.019-.49-.026-.766-.033a8.308,8.308,0,0,0-5.9,2.486,7.616,7.616,0,0,0-1.333,1.8l-.032.065a8.042,8.042,0,0,0-.676,1.615,8.17,8.17,0,0,0-.277,1.456,6.813,6.813,0,0,0-.052.875,9.4,9.4,0,0,0,.065,1.107c-.006.026-.045.039-.071.033a5.394,5.394,0,0,0-.547-.181l-.135-.032c-.142-.032-.29-.064-.444-.09l-.155-.026c-.142-.013-.29-.032-.386-.039-.078-.007-.148-.013-.225-.013h-.406c-.059.006-.116.006-.226.013-.148.013-.3.026-.444.046l-.142.019c-.167.026-.329.058-.489.1-.045.013-.083.019-.155.045-.154.038-.309.083-.456.135a5.881,5.881,0,0,0-.612.252,7.32,7.32,0,0,0-.76.437,3.7,3.7,0,0,0-.4.3,6.661,6.661,0,0,0-.7.631,5.962,5.962,0,0,0-.546.676,6.673,6.673,0,0,0-1.03,2.363,5.055,5.055,0,0,0-1.146.412,5.6,5.6,0,0,0-1.25.824,5.145,5.145,0,0,0-.721.773,5.508,5.508,0,0,0,4.366,8.88h26.452c.232,0,.457-.006.689-.026a8.339,8.339,0,0,0,7.623-8.287,8.255,8.255,0,0,0-2.44-5.866m-5.241,13.515c-.212.019-.419.019-.631.019H905.943a4.865,4.865,0,0,1-3.857-7.842,4.431,4.431,0,0,1,.637-.676,4.712,4.712,0,0,1,1.107-.735,4.263,4.263,0,0,1,1.005-.361.708.708,0,0,0,.521-.541,5.576,5.576,0,0,1,.895-2.086,4.871,4.871,0,0,1,.49-.6,5.205,5.205,0,0,1,.624-.566,3.5,3.5,0,0,1,.347-.265,6.309,6.309,0,0,1,.7-.4,4.974,4.974,0,0,1,.541-.226c.135-.044.27-.083.406-.123a1.4,1.4,0,0,0,.141-.037c.148-.033.3-.058.439-.085.045-.005.084-.012.129-.018.135-.019.264-.033.4-.039.071-.007.135-.007.2-.012h.392a1.094,1.094,0,0,1,.135.006c.135.013.264.027.386.046a1.473,1.473,0,0,1,.148.018c.129.02.258.046.386.078.039.012.084.019.122.032a4.328,4.328,0,0,1,.49.155.7.7,0,0,0,.939-.74,7.341,7.341,0,0,1-.064-.992,6.823,6.823,0,0,1,.045-.811,8.012,8.012,0,0,1,.257-1.346,7.736,7.736,0,0,1,.618-1.486.051.051,0,0,0,.014-.026c.006-.013.019-.032.025-.046a7.16,7.16,0,0,1,1.224-1.642,7.584,7.584,0,0,1,5.473-2.3c.232,0,.463.013.689.032.2.02.392.045.586.078l.04.006c.129.02.264.046.392.071a7.7,7.7,0,0,1,5.95,7.47c0,.147-.006.3-.013.45a.7.7,0,0,0,.663.728.759.759,0,0,0,.271-.045,7.662,7.662,0,1,1,3.194,14.855m5.241-13.515a8.271,8.271,0,0,0-5.86-2.422h-.013a8.459,8.459,0,0,0-2.8.483c-.033,0-.052-.025-.052-.09.007-.147.012-.3.012-.444A8.318,8.318,0,0,0,923.1,207.1a3.854,3.854,0,0,0-.45-.083c-.213-.038-.425-.064-.657-.09-.251-.019-.49-.026-.766-.033a8.308,8.308,0,0,0-5.9,2.486,7.616,7.616,0,0,0-1.333,1.8l-.032.065a8.042,8.042,0,0,0-.676,1.615,8.17,8.17,0,0,0-.277,1.456,6.813,6.813,0,0,0-.052.875,9.4,9.4,0,0,0,.065,1.107c-.006.026-.045.039-.071.033a5.394,5.394,0,0,0-.547-.181l-.135-.032c-.142-.032-.29-.064-.444-.09l-.155-.026c-.142-.013-.29-.032-.386-.039-.078-.007-.148-.013-.225-.013h-.406c-.059.006-.116.006-.226.013-.148.013-.3.026-.444.046l-.142.019c-.167.026-.329.058-.489.1-.045.013-.083.019-.155.045-.154.038-.309.083-.456.135a5.881,5.881,0,0,0-.612.252,7.32,7.32,0,0,0-.76.437,3.7,3.7,0,0,0-.4.3,6.661,6.661,0,0,0-.7.631,5.962,5.962,0,0,0-.546.676,6.673,6.673,0,0,0-1.03,2.363,5.055,5.055,0,0,0-1.146.412,5.6,5.6,0,0,0-1.25.824,5.145,5.145,0,0,0-.721.773,5.508,5.508,0,0,0,4.366,8.88h26.452c.232,0,.457-.006.689-.026a8.339,8.339,0,0,0,7.623-8.287,8.255,8.255,0,0,0-2.44-5.866m-5.241,13.515c-.212.019-.419.019-.631.019H905.943a4.865,4.865,0,0,1-3.857-7.842,4.431,4.431,0,0,1,.637-.676,4.712,4.712,0,0,1,1.107-.735,4.263,4.263,0,0,1,1.005-.361.708.708,0,0,0,.521-.541,5.576,5.576,0,0,1,.895-2.086,4.871,4.871,0,0,1,.49-.6,5.205,5.205,0,0,1,.624-.566,3.5,3.5,0,0,1,.347-.265,6.309,6.309,0,0,1,.7-.4,4.974,4.974,0,0,1,.541-.226c.135-.044.27-.083.406-.123a1.4,1.4,0,0,0,.141-.037c.148-.033.3-.058.439-.085.045-.005.084-.012.129-.018.135-.019.264-.033.4-.039.071-.007.135-.007.2-.012h.392a1.094,1.094,0,0,1,.135.006c.135.013.264.027.386.046a1.473,1.473,0,0,1,.148.018c.129.02.258.046.386.078.039.012.084.019.122.032a4.328,4.328,0,0,1,.49.155.7.7,0,0,0,.939-.74,7.341,7.341,0,0,1-.064-.992,6.823,6.823,0,0,1,.045-.811,8.012,8.012,0,0,1,.257-1.346,7.736,7.736,0,0,1,.618-1.486.051.051,0,0,0,.014-.026c.006-.013.019-.032.025-.046a7.16,7.16,0,0,1,1.224-1.642,7.584,7.584,0,0,1,5.473-2.3c.232,0,.463.013.689.032.2.02.392.045.586.078l.04.006c.129.02.264.046.392.071a7.7,7.7,0,0,1,5.95,7.47c0,.147-.006.3-.013.45a.7.7,0,0,0,.663.728.759.759,0,0,0,.271-.045,7.662,7.662,0,1,1,3.194,14.855m5.241-13.515a8.271,8.271,0,0,0-5.86-2.422h-.013a8.459,8.459,0,0,0-2.8.483c-.033,0-.052-.025-.052-.09.007-.147.012-.3.012-.444A8.318,8.318,0,0,0,923.1,207.1a3.854,3.854,0,0,0-.45-.083c-.213-.038-.425-.064-.657-.09-.251-.019-.49-.026-.766-.033a8.308,8.308,0,0,0-5.9,2.486,7.616,7.616,0,0,0-1.333,1.8l-.032.065a8.042,8.042,0,0,0-.676,1.615,8.17,8.17,0,0,0-.277,1.456,6.813,6.813,0,0,0-.052.875,9.4,9.4,0,0,0,.065,1.107c-.006.026-.045.039-.071.033a5.394,5.394,0,0,0-.547-.181l-.135-.032c-.142-.032-.29-.064-.444-.09l-.155-.026c-.142-.013-.29-.032-.386-.039-.078-.007-.148-.013-.225-.013h-.406c-.059.006-.116.006-.226.013-.148.013-.3.026-.444.046l-.142.019c-.167.026-.329.058-.489.1-.045.013-.083.019-.155.045-.154.038-.309.083-.456.135a5.881,5.881,0,0,0-.612.252,7.32,7.32,0,0,0-.76.437,3.7,3.7,0,0,0-.4.3,6.661,6.661,0,0,0-.7.631,5.962,5.962,0,0,0-.546.676,6.673,6.673,0,0,0-1.03,2.363,5.055,5.055,0,0,0-1.146.412,5.6,5.6,0,0,0-1.25.824,5.145,5.145,0,0,0-.721.773,5.508,5.508,0,0,0,4.366,8.88h26.452c.232,0,.457-.006.689-.026a8.339,8.339,0,0,0,7.623-8.287,8.255,8.255,0,0,0-2.44-5.866m-5.241,13.515c-.212.019-.419.019-.631.019H905.943a4.865,4.865,0,0,1-3.857-7.842,4.431,4.431,0,0,1,.637-.676,4.712,4.712,0,0,1,1.107-.735,4.263,4.263,0,0,1,1.005-.361.708.708,0,0,0,.521-.541,5.576,5.576,0,0,1,.895-2.086,4.871,4.871,0,0,1,.49-.6,5.205,5.205,0,0,1,.624-.566,3.5,3.5,0,0,1,.347-.265,6.309,6.309,0,0,1,.7-.4,4.974,4.974,0,0,1,.541-.226c.135-.044.27-.083.406-.123a1.4,1.4,0,0,0,.141-.037c.148-.033.3-.058.439-.085.045-.005.084-.012.129-.018.135-.019.264-.033.4-.039.071-.007.135-.007.2-.012h.392a1.094,1.094,0,0,1,.135.006c.135.013.264.027.386.046a1.473,1.473,0,0,1,.148.018c.129.02.258.046.386.078.039.012.084.019.122.032a4.328,4.328,0,0,1,.49.155.7.7,0,0,0,.939-.74,7.341,7.341,0,0,1-.064-.992,6.823,6.823,0,0,1,.045-.811,8.012,8.012,0,0,1,.257-1.346,7.736,7.736,0,0,1,.618-1.486.051.051,0,0,0,.014-.026c.006-.013.019-.032.025-.046a7.16,7.16,0,0,1,1.224-1.642,7.584,7.584,0,0,1,5.473-2.3c.232,0,.463.013.689.032.2.02.392.045.586.078l.04.006c.129.02.264.046.392.071a7.7,7.7,0,0,1,5.95,7.47c0,.147-.006.3-.013.45a.7.7,0,0,0,.663.728.759.759,0,0,0,.271-.045,7.662,7.662,0,1,1,3.194,14.855" transform="translate(-899.674 -203.353)" fill="#ffab4b"/>
  <path id="Path_49" data-name="Path 49" d="M940.829,219.981a9.044,9.044,0,0,0-9.035-8.312,8.8,8.8,0,0,0-2.1.245,9.122,9.122,0,0,0-7.019-8.372l-.193-.038a6.247,6.247,0,0,0-11.365,1.693,5.579,5.579,0,0,0-7.868,5.081,5.637,5.637,0,0,0,.052.734,4.865,4.865,0,0,0-2.678,8.383c-.084.1-.168.193-.245.29a6.171,6.171,0,0,0-1.3,3.818,6.272,6.272,0,0,0,6.264,6.265h26.452c.258,0,.509-.013.754-.032a9.05,9.05,0,0,0,8.281-9.756m-39.478-6.445a3.456,3.456,0,0,1,2.6-1.172h.122a.7.7,0,0,0,.612-.245.706.706,0,0,0,.129-.644,3.988,3.988,0,0,1-.167-1.2,4.177,4.177,0,0,1,4.173-4.179,4.086,4.086,0,0,1,2.408.766.694.694,0,0,0,.972-.161.724.724,0,0,0,.128-.348,4.9,4.9,0,0,1,5.139-4.43,4.8,4.8,0,0,1,3.117,1.391c-.045,0-.084.007-.129.007h-.026a8.2,8.2,0,0,0-.972.078l-.032.006a7.538,7.538,0,0,0-.933.175l-.052.012c-.3.078-.592.168-.875.27l-.085.027c-.27.1-.534.218-.8.347l-.116.057c-.245.123-.477.258-.708.4l-.155.1a6.364,6.364,0,0,0-.624.452c-.058.045-.116.083-.167.128a8.876,8.876,0,0,0-2.177,2.615l-.007.007a.48.48,0,0,0-.051.1,8.7,8.7,0,0,0-.709,1.719,9.481,9.481,0,0,0-.309,1.578,7.026,7.026,0,0,0-.051.972v.141a6.994,6.994,0,0,0-4.4.541,7.328,7.328,0,0,0-.869.5,3.565,3.565,0,0,0-.47.355,7.269,7.269,0,0,0-.74.669,6.344,6.344,0,0,0-.618.76,6.89,6.89,0,0,0-1.017,2.183,5.259,5.259,0,0,0-.889.355,7.363,7.363,0,0,0-.869.522c-.032.025-.065.038-.091.057a3.477,3.477,0,0,1-.3-4.913m31.132,15.454c-.232.019-.457.026-.689.026H905.342a5.508,5.508,0,0,1-4.365-8.879,5.051,5.051,0,0,1,.722-.773,5.568,5.568,0,0,1,1.249-.824,5.064,5.064,0,0,1,1.147-.412,6.679,6.679,0,0,1,1.029-2.363,6.013,6.013,0,0,1,.548-.676,6.644,6.644,0,0,1,.7-.631,3.58,3.58,0,0,1,.4-.3,7.223,7.223,0,0,1,.76-.437,5.889,5.889,0,0,1,.611-.251c.148-.052.3-.1.457-.136a1.458,1.458,0,0,1,.154-.044c.161-.039.322-.072.49-.1l.141-.02c.148-.019.3-.032.444-.045.109-.007.168-.007.225-.013h.406c.078,0,.148.007.226.013.1.007.245.026.387.039l.154.026c.155.025.3.057.444.09l.135.032a5.242,5.242,0,0,1,.548.181c.025.007.064-.007.07-.032a9.463,9.463,0,0,1-.064-1.107,6.858,6.858,0,0,1,.052-.876,8.21,8.21,0,0,1,.276-1.455,8.1,8.1,0,0,1,.676-1.616l.033-.065a7.607,7.607,0,0,1,1.332-1.8,8.306,8.306,0,0,1,5.905-2.485c.277.007.515.013.766.032.233.026.445.052.657.09a3.665,3.665,0,0,1,.451.083,8.321,8.321,0,0,1,6.452,8.094c0,.148-.006.3-.013.444,0,.065.02.091.052.091a8.473,8.473,0,0,1,2.8-.483h.013a8.3,8.3,0,0,1,.676,16.574" transform="translate(-899.074 -200.528)" fill="#ffab4b"/>
</svg>
