<svg xmlns="http://www.w3.org/2000/svg" viewBox="0 0 19.663 18.059">
  <g id="Openshift_icon" transform="translate(-18.336 -80)">
    <path
      id="path44560"
      d="M26.82,9.893a8.963,8.963,0,0,0-.77-1.307L22.894,9.735a5.9,5.9,0,0,1,.928,1.25ZM12.867,13.385,9.71,14.533a9.182,9.182,0,0,0,.25,1.5l3-1.092a5.869,5.869,0,0,1-.092-1.553"
      transform="translate(11.179 74.714)"
      fill="#8c8c8c"
    />
    <path
      id="path44564"
      d="M17.725,3.713a5.844,5.844,0,0,1,1.706,1.215l3.156-1.149A9.023,9.023,0,0,0,6.247,9.725L9.4,8.577a5.849,5.849,0,0,1,8.321-4.864"
      transform="translate(13.328 80)"
      fill="#8c8c8c"
    />
    <path
      id="path44572"
      d="M23.8,22.832a5.789,5.789,0,0,1-.53,2.027,5.872,5.872,0,0,1-7.8,2.837,5.808,5.808,0,0,1-1.709-1.213l-3.15,1.146a9.019,9.019,0,0,0,16.335-5.944L23.8,22.832Z"
      transform="translate(10.623 66.649)"
      fill="#8c8c8c"
    />
    <path
      id="path44576"
      d="M19.929,14.641l-3,1.092a5.885,5.885,0,0,1,.734,3.3l3.15-1.146a9.1,9.1,0,0,0-.885-3.249M6.068,19.685l-3,1.093A9.131,9.131,0,0,0,4.48,23.835l3.15-1.147a5.9,5.9,0,0,1-1.561-3"
      transform="translate(15.267 70.986)"
      fill="#b2b2b2"
    />
    <path
      id="path44584"
      d="M26.363,9.062c-.1-.161-.2-.32-.313-.475L22.894,9.735a5.615,5.615,0,0,1,.389.448l3.081-1.121ZM12.855,14.019a5.586,5.586,0,0,1,.012-.634L9.71,14.534c.016.2.042.4.072.6l3.073-1.118Z"
      transform="translate(11.179 74.714)"
      fill="#737373"
    />
    <path
      id="path44588"
      d="M26.947,21.686,23.8,22.832a5.763,5.763,0,0,1-.266,1.355l3.429-1.25a9.053,9.053,0,0,0-.012-1.251M10.613,27.63a8.943,8.943,0,0,0,.8.975l3.429-1.251a5.828,5.828,0,0,1-1.082-.871Z"
      transform="translate(10.623 66.649)"
      fill="#737373"
    />
  </g>
</svg>
