<svg xmlns="http://www.w3.org/2000/svg" viewBox="0 0 69.403 9.035" preserveAspectRatio="xMidYMid meet">
  <path
    d="M63.271,54.555v.889h2.577v7.87h.976v-7.87H69.4v-.889Zm-5.918.888v2.9h2.4v.889h-2.4v4.078h-.976V54.556H61.52v.887Zm-4.464-.887h.976v8.759h-.976ZM49.4,63.314V59.184H45.046v4.129h-.976V54.555h.976V58.3H49.4V54.555h.976v8.759Zm-10.407.138a4.175,4.175,0,0,1-2.941-1.213l.651-.727a3.325,3.325,0,0,0,2.327,1.052c1.163,0,1.89-.576,1.89-1.5,0-.814-.488-1.276-2.089-1.852-1.89-.675-2.528-1.288-2.528-2.552,0-1.4,1.1-2.241,2.739-2.241a3.921,3.921,0,0,1,2.666.94l-.626.763a3.049,3.049,0,0,0-2.1-.814c-1.2,0-1.7.6-1.7,1.289,0,.727.326,1.138,2.077,1.765,1.939.7,2.54,1.351,2.54,2.652,0,1.376-1.076,2.439-2.9,2.439M32.1,63.314l-3.215-4.779c-.213-.326-.5-.764-.614-.989,0,.326.025,1.426.025,1.914v3.855H26.568V54.555h1.677l3.1,4.629c.213.326.5.764.612.989,0-.326-.024-1.426-.024-1.915v-3.7h1.726v8.759H32.1Zm-13.811,0V54.555h6.081v1.714H20.04v1.515h2.516v1.7H20.04V61.6h4.517v1.714H18.288Zm-4.977-3.1H11.384v3.1H9.632V54.555h3.829a2.717,2.717,0,0,1,3.016,2.777c0,2.028-1.351,2.879-3.166,2.879m.089-3.954H11.384v2.252h2.04c.814,0,1.252-.377,1.252-1.139s-.5-1.112-1.276-1.112M3.855,63.452C1.564,63.452,0,61.775,0,58.947s1.59-4.53,3.88-4.53,3.841,1.678,3.841,4.506-1.59,4.529-3.867,4.529m-.012-7.3c-1.226,0-2.04.989-2.04,2.766s.851,2.789,2.077,2.789,2.038-.988,2.038-2.765-.85-2.79-2.076-2.79"
    transform="translate(0 -54.417)"
    fill="#241f21"
  />
</svg>
